<?xml version="1.0" standalone="no"?>
<!DOCTYPE svg PUBLIC "-//W3C//DTD SVG 20010904//EN"
 "http://www.w3.org/TR/2001/REC-SVG-20010904/DTD/svg10.dtd">
<svg version="1.0" xmlns="http://www.w3.org/2000/svg"
 width="512.000000pt" height="512.000000pt" viewBox="0 0 512.000000 512.000000"
 preserveAspectRatio="xMidYMid meet">
<metadata>
Created by potrace 1.14, written by Peter Selinger 2001-2017
</metadata>
<g transform="translate(0.000000,512.000000) scale(0.100000,-0.100000)"
fill="#000000" stroke="none">
<path d="M1275 4103 c-529 -68 -939 -456 -1039 -982 -19 -100 -20 -313 -2
-422 12 -74 10 -89 -41 -420 -71 -466 -160 -1074 -172 -1182 -27 -238 68 -441
248 -530 61 -30 73 -32 166 -32 87 0 107 3 155 26 57 27 183 129 405 328 177
159 411 361 419 361 3 0 30 -15 59 -34 122 -78 239 -111 392 -110 166 1 305
48 429 145 109 85 214 242 247 368 l13 51 27 -80 c38 -114 82 -183 179 -280
142 -143 289 -204 490 -204 159 -1 278 34 397 114 25 17 51 29 57 27 14 -6
312 -265 439 -380 165 -152 320 -277 377 -305 49 -24 66 -27 155 -27 93 0 105
2 167 33 158 77 251 233 250 417 0 108 -63 573 -178 1315 -29 189 -44 313 -41
345 3 28 10 96 17 153 22 188 -15 414 -99 604 -130 294 -395 536 -703 642
-186 64 -87 60 -1498 62 -707 1 -1298 0 -1315 -3z m2491 -361 c50 -26 78 -56
103 -112 45 -98 12 -219 -77 -283 -36 -26 -54 -32 -113 -35 -109 -7 -179 31
-223 120 -100 201 111 412 310 310z m-2200 -43 c17 -19 19 -40 22 -188 l3
-166 -96 -95 -95 -95 -90 90 -90 90 0 163 c0 158 6 196 34 214 6 4 74 8 152 8
131 0 142 -2 160 -21z m1741 -420 c131 -63 162 -250 60 -358 -88 -92 -241 -95
-330 -5 -48 48 -61 83 -62 159 0 59 4 78 28 117 63 107 188 143 304 87z m908
0 c82 -38 125 -110 125 -206 0 -105 -61 -184 -165 -213 -117 -33 -246 48 -274
171 -39 174 151 324 314 248z m-2983 -96 c49 -48 88 -92 88 -98 0 -6 -39 -50
-88 -98 l-87 -87 -162 0 c-89 0 -169 3 -178 6 -33 13 -45 59 -45 176 0 182 7
188 230 188 l155 0 87 -87z m782 66 c26 -20 26 -21 26 -164 0 -195 11 -185
-215 -185 l-170 0 -90 90 -90 90 95 95 95 95 161 0 c148 0 163 -2 188 -21z
m-512 -336 l88 -88 0 -157 c0 -168 -7 -199 -47 -217 -13 -6 -79 -11 -149 -11
-119 0 -126 1 -149 25 -25 24 -25 27 -25 192 l0 168 87 87 c48 49 92 88 98 88
5 0 49 -39 97 -87z m2264 -94 c47 -22 91 -73 110 -128 52 -146 -60 -303 -216
-303 -137 0 -243 119 -226 256 19 160 184 247 332 175z m-1785 -605 c76 -23
128 -56 188 -119 197 -209 134 -543 -127 -672 -73 -37 -80 -38 -181 -38 -98 0
-111 2 -174 32 -296 140 -342 532 -86 728 102 78 256 106 380 69z m1429 -12
c228 -89 333 -354 228 -573 -95 -198 -305 -293 -509 -229 -120 37 -211 117
-266 236 -25 53 -28 70 -28 169 0 103 2 114 32 177 55 116 164 209 279 237 63
16 202 7 264 -17z"/>
</g>
</svg>
